<svg width="17" height="21" viewBox="0 0 17 21" fill="none" xmlns="http://www.w3.org/2000/svg">
<path d="M8.95394 5.89668L8.00793 0.855C7.97042 0.65 7.75055 0.5 7.49321 0.5C7.48799 0.5 7.48174 0.5 7.47549 0.5C7.21083 0.50668 6.99515 0.67082 6.97435 0.88168L6.518 3.25918C6.48987 3.52918 5.89076 3.52918 5.86263 3.25918L5.40735 0.88168C5.3844 0.66582 5.15935 0.5 4.88848 0.5C4.61758 0.5 4.3915 0.66582 4.36962 0.88168L3.91327 3.25918C3.88514 3.52918 3.28603 3.52918 3.2579 3.25918L2.80257 0.88168C2.78069 0.67168 2.56502 0.5075 2.30036 0.5C2.29411 0.5 2.28888 0.5 2.28371 0.5C2.02637 0.5 1.8065 0.65 1.76899 0.855L0.824007 5.89668C0.500061 8 1.54814 9.7875 3.23807 10.3767L2.43374 18.3934C2.38583 18.9359 2.62338 19.475 3.08701 19.8734C3.54961 20.2717 4.20498 20.5 4.88638 20.5H4.89054C5.57091 20.5 6.22731 20.2717 6.69094 19.8733C7.15456 19.475 7.39212 18.9358 7.34421 18.3933L6.53988 10.3767C8.22985 9.7875 9.50006 8 8.95394 5.89668Z" fill="#8D8D9C"/>
<path d="M16.0017 0.576663C15.8638 0.498343 15.6862 0.479984 15.5263 0.524163C15.4814 0.536663 10.5 1.5 10.5 6C10.5 8.9275 11.8545 9.82695 13 11L11.2204 18.3016C11.1493 18.8625 11.3802 19.4241 11.8545 19.8425C12.3288 20.2608 13.0088 20.5 13.715 20.5C15.0971 20.5 16.2221 19.6025 16.2221 18.5V0.916663C16.2231 0.780804 16.1406 0.654984 16.0017 0.576663Z" fill="#8D8D9C"/>
</svg>
