<svg width="146" height="37" viewBox="0 0 146 37" fill="none" xmlns="http://www.w3.org/2000/svg">
<g clip-path="url(#clip0_1_234)">
<rect width="37" height="37" rx="12" fill="white"/>
<g filter="url(#filter0_dddddd_1_234)">
<path d="M15.4649 12.0736C14.362 11.5602 13.334 11.2911 12.8047 11.1481C12.5591 11.0816 12.4177 11.0494 12.4177 11.0494C12.4177 11.0494 12.427 11.0631 12.4442 11.0918C12.5886 11.332 13.4433 12.4631 13.6074 15.3988C13.6421 16.016 13.5919 17.8108 13.6434 18.4142C13.7532 19.7014 14.1562 20.8014 14.836 21.7688C15.9959 23.4195 17.4715 24.0001 18.5338 24.2011C19.2775 24.3416 19.8187 24.2961 19.9083 24.3007C20.0061 24.2089 21.0564 23.9741 21.1637 23.8674C21.5449 22.2433 22.8824 15.5267 15.4649 12.0736Z" fill="url(#paint0_linear_1_234)"/>
<g style="mix-blend-mode:multiply">
<path d="M15.519 11.9007C14.4006 11.38 13.3581 11.1071 12.8214 10.9621C12.5723 10.8947 12.429 10.8621 12.429 10.8621C12.429 10.8621 12.4383 10.8759 12.4558 10.9051C12.6022 11.1486 13.4689 12.2956 13.6353 15.2726C13.6706 15.8985 13.6196 17.7186 13.6719 18.3304C13.7832 19.6358 14.1919 20.7512 14.8813 21.7323C16.0575 23.4061 17.5538 23.995 18.6311 24.1987C19.3852 24.3412 19.9341 24.2951 20.0249 24.2997C20.1241 24.2066 21.1892 23.9685 21.298 23.8603C21.6845 22.2134 23.0408 15.4023 15.519 11.9007Z" fill="url(#paint1_linear_1_234)" fill-opacity="0.4"/>
</g>
<path d="M25.3804 15.3312C24.8739 19.1309 22.4073 22.8365 19.0995 24.5059C18.8249 24.5059 17.5475 23.3258 17.0432 22.1304C16.0086 19.6782 17.2043 17.4312 20.3515 14.8046C21.6702 13.7039 23.1615 12.2425 23.9977 10.1172C24.8594 11.6802 25.3552 13.4567 25.3804 15.3312Z" fill="url(#paint2_linear_1_234)"/>
<path d="M25.3684 16.0378C25.3666 16.0761 25.3646 16.1143 25.3623 16.1528C25.3563 16.2551 25.3488 16.3571 25.3403 16.4587C24.8333 22.4578 19.5675 27.0088 13.3874 26.8744C13.2405 26.8712 13.11 26.8668 13.0092 26.8612C12.4341 26.8286 11.8755 26.7479 11.3438 26.6357V25.0449C11.3438 25.0449 13.5484 25.2853 14.7591 25.2032C14.7601 25.2032 14.7614 25.2032 14.7626 25.203C16.3307 25.0768 17.8183 24.6467 19.1582 23.9701C22.4658 22.3007 24.8748 19.1309 25.3811 15.3312C25.3844 15.5655 25.3801 15.8008 25.3684 16.0378Z" fill="url(#paint3_linear_1_234)"/>
</g>
</g>
<path d="M51.8285 23.5L52.6381 21.0124H56.5746L57.3842 23.5H59.8558L56.0952 12.5909H53.1229L49.3569 23.5H51.8285ZM53.2241 19.212L54.5664 15.0838H54.6516L55.994 19.212H53.2241ZM61.1262 23.5H63.3954V18.5888C63.3954 17.6832 63.9707 17.0813 64.7271 17.0813C65.4728 17.0813 65.9735 17.5927 65.9735 18.397V23.5H68.1735V18.5036C68.1735 17.6566 68.6582 17.0813 69.4838 17.0813C70.2083 17.0813 70.7516 17.5341 70.7516 18.445V23.5H73.0154V17.9975C73.0154 16.2237 71.9608 15.2116 70.4373 15.2116C69.2388 15.2116 68.3066 15.8242 67.9711 16.7617H67.8858C67.6248 15.8136 66.7885 15.2116 65.6646 15.2116C64.562 15.2116 63.7257 15.7976 63.3848 16.7617H63.2889V15.3182H61.1262V23.5ZM77.141 23.6545C78.3501 23.6545 79.1332 23.1271 79.5327 22.3654H79.5966V23.5H81.7486V17.9815C81.7486 16.032 80.0973 15.2116 78.2756 15.2116C76.3153 15.2116 75.0263 16.1491 74.712 17.6406L76.8107 17.8111C76.9652 17.2678 77.4499 16.8683 78.2649 16.8683C79.0373 16.8683 79.4794 17.2571 79.4794 17.9283V17.9602C79.4794 18.4876 78.9201 18.5568 77.4979 18.6953C75.8786 18.8445 74.4244 19.3878 74.4244 21.2148C74.4244 22.8342 75.5803 23.6545 77.141 23.6545ZM77.7908 22.0884C77.093 22.0884 76.5923 21.7635 76.5923 21.1403C76.5923 20.5011 77.1197 20.1868 77.9187 20.0749C78.4141 20.0057 79.2237 19.8885 79.4954 19.7074V20.5756C79.4954 21.4332 78.7869 22.0884 77.7908 22.0884ZM83.4664 23.5H90.3432V21.6889H86.4441V21.6303L90.2047 16.7937V15.3182H83.6049V17.1293H87.4721V17.1879L83.4664 22.147V23.5ZM92.0784 23.5H94.3476V15.3182H92.0784V23.5ZM93.2183 14.2635C93.8948 14.2635 94.4488 13.7468 94.4488 13.1129C94.4488 12.4844 93.8948 11.9677 93.2183 11.9677C92.5471 11.9677 91.9932 12.4844 91.9932 13.1129C91.9932 13.7468 92.5471 14.2635 93.2183 14.2635ZM98.4345 18.7699C98.4398 17.7152 99.0684 17.0973 99.9846 17.0973C100.895 17.0973 101.444 17.6939 101.439 18.6953V23.5H103.708V18.2905C103.708 16.3835 102.589 15.2116 100.885 15.2116C99.6703 15.2116 98.7914 15.8082 98.4238 16.7617H98.3279V15.3182H96.1653V23.5H98.4345V18.7699ZM109.182 26.7386C111.521 26.7386 113.183 25.6733 113.183 23.5799V15.3182H110.93V16.6925H110.844C110.541 16.0266 109.875 15.2116 108.506 15.2116C106.711 15.2116 105.193 16.6072 105.193 19.3931C105.193 22.1151 106.668 23.3828 108.511 23.3828C109.816 23.3828 110.546 22.7276 110.844 22.0511H110.94V23.5479C110.94 24.6719 110.221 25.1087 109.236 25.1087C108.234 25.1087 107.728 24.6719 107.542 24.1765L105.443 24.4588C105.715 25.7479 106.977 26.7386 109.182 26.7386ZM109.23 21.6783C108.117 21.6783 107.51 20.794 107.51 19.3825C107.51 17.9922 108.106 17.0174 109.23 17.0174C110.333 17.0174 110.951 17.9496 110.951 19.3825C110.951 20.826 110.322 21.6783 109.23 21.6783ZM120.793 23.6545C122.002 23.6545 122.786 23.1271 123.185 22.3654H123.249V23.5H125.401V17.9815C125.401 16.032 123.75 15.2116 121.928 15.2116C119.968 15.2116 118.679 16.1491 118.364 17.6406L120.463 17.8111C120.618 17.2678 121.102 16.8683 121.917 16.8683C122.69 16.8683 123.132 17.2571 123.132 17.9283V17.9602C123.132 18.4876 122.572 18.5568 121.15 18.6953C119.531 18.8445 118.077 19.3878 118.077 21.2148C118.077 22.8342 119.233 23.6545 120.793 23.6545ZM121.443 22.0884C120.745 22.0884 120.245 21.7635 120.245 21.1403C120.245 20.5011 120.772 20.1868 121.571 20.0749C122.066 20.0057 122.876 19.8885 123.148 19.7074V20.5756C123.148 21.4332 122.439 22.0884 121.443 22.0884ZM127.161 26.5682H129.431V22.1896H129.5C129.814 22.8714 130.501 23.6332 131.822 23.6332C133.687 23.6332 135.141 22.1577 135.141 19.4197C135.141 16.6072 133.623 15.2116 131.828 15.2116C130.459 15.2116 129.803 16.0266 129.5 16.6925H129.399V15.3182H127.161V26.5682ZM129.383 19.4091C129.383 17.9496 130.001 17.0174 131.103 17.0174C132.227 17.0174 132.824 17.9922 132.824 19.4091C132.824 20.8366 132.216 21.8274 131.103 21.8274C130.011 21.8274 129.383 20.8686 129.383 19.4091ZM136.654 26.5682H138.923V22.1896H138.992C139.306 22.8714 139.993 23.6332 141.314 23.6332C143.179 23.6332 144.633 22.1577 144.633 19.4197C144.633 16.6072 143.115 15.2116 141.32 15.2116C139.951 15.2116 139.296 16.0266 138.992 16.6925H138.891V15.3182H136.654V26.5682ZM138.875 19.4091C138.875 17.9496 139.493 17.0174 140.595 17.0174C141.719 17.0174 142.316 17.9922 142.316 19.4091C142.316 20.8366 141.709 21.8274 140.595 21.8274C139.503 21.8274 138.875 20.8686 138.875 19.4091Z" fill="#235864"/>
<defs>
<filter id="filter0_dddddd_1_234" x="-27.8062" y="10.1172" width="92.3382" height="95.06" filterUnits="userSpaceOnUse" color-interpolation-filters="sRGB">
<feFlood flood-opacity="0" result="BackgroundImageFix"/>
<feColorMatrix in="SourceAlpha" type="matrix" values="0 0 0 0 0 0 0 0 0 0 0 0 0 0 0 0 0 0 127 0" result="hardAlpha"/>
<feOffset dy="1.08338"/>
<feGaussianBlur stdDeviation="0.54169"/>
<feColorMatrix type="matrix" values="0 0 0 0 0 0 0 0 0 0 0 0 0 0 0 0 0 0 0.0224916 0"/>
<feBlend mode="normal" in2="BackgroundImageFix" result="effect1_dropShadow_1_234"/>
<feColorMatrix in="SourceAlpha" type="matrix" values="0 0 0 0 0 0 0 0 0 0 0 0 0 0 0 0 0 0 127 0" result="hardAlpha"/>
<feOffset dy="2.60351"/>
<feGaussianBlur stdDeviation="1.30176"/>
<feColorMatrix type="matrix" values="0 0 0 0 0 0 0 0 0 0 0 0 0 0 0 0 0 0 0.0323114 0"/>
<feBlend mode="normal" in2="effect1_dropShadow_1_234" result="effect2_dropShadow_1_234"/>
<feColorMatrix in="SourceAlpha" type="matrix" values="0 0 0 0 0 0 0 0 0 0 0 0 0 0 0 0 0 0 127 0" result="hardAlpha"/>
<feOffset dy="4.90218"/>
<feGaussianBlur stdDeviation="2.45109"/>
<feColorMatrix type="matrix" values="0 0 0 0 0 0 0 0 0 0 0 0 0 0 0 0 0 0 0.04 0"/>
<feBlend mode="normal" in2="effect2_dropShadow_1_234" result="effect3_dropShadow_1_234"/>
<feColorMatrix in="SourceAlpha" type="matrix" values="0 0 0 0 0 0 0 0 0 0 0 0 0 0 0 0 0 0 127 0" result="hardAlpha"/>
<feOffset dy="8.74465"/>
<feGaussianBlur stdDeviation="4.37233"/>
<feColorMatrix type="matrix" values="0 0 0 0 0 0 0 0 0 0 0 0 0 0 0 0 0 0 0.0476886 0"/>
<feBlend mode="normal" in2="effect3_dropShadow_1_234" result="effect4_dropShadow_1_234"/>
<feColorMatrix in="SourceAlpha" type="matrix" values="0 0 0 0 0 0 0 0 0 0 0 0 0 0 0 0 0 0 127 0" result="hardAlpha"/>
<feOffset dy="16.3559"/>
<feGaussianBlur stdDeviation="8.17795"/>
<feColorMatrix type="matrix" values="0 0 0 0 0 0 0 0 0 0 0 0 0 0 0 0 0 0 0.0575083 0"/>
<feBlend mode="normal" in2="effect4_dropShadow_1_234" result="effect5_dropShadow_1_234"/>
<feColorMatrix in="SourceAlpha" type="matrix" values="0 0 0 0 0 0 0 0 0 0 0 0 0 0 0 0 0 0 127 0" result="hardAlpha"/>
<feOffset dy="39.1499"/>
<feGaussianBlur stdDeviation="19.575"/>
<feColorMatrix type="matrix" values="0 0 0 0 0 0 0 0 0 0 0 0 0 0 0 0 0 0 0.08 0"/>
<feBlend mode="normal" in2="effect5_dropShadow_1_234" result="effect6_dropShadow_1_234"/>
<feBlend mode="normal" in="SourceGraphic" in2="effect6_dropShadow_1_234" result="shape"/>
</filter>
<linearGradient id="paint0_linear_1_234" x1="17.8107" y1="21.0112" x2="14.8937" y2="14.5321" gradientUnits="userSpaceOnUse">
<stop stop-color="#F71F36"/>
<stop offset="1" stop-color="#F97664"/>
</linearGradient>
<linearGradient id="paint1_linear_1_234" x1="26.491" y1="22.4545" x2="12.3106" y2="7.09755" gradientUnits="userSpaceOnUse">
<stop offset="0.128343" stop-color="#020202"/>
<stop offset="0.487565" stop-color="white" stop-opacity="0"/>
</linearGradient>
<linearGradient id="paint2_linear_1_234" x1="18.1636" y1="25.3688" x2="22.1305" y2="15.983" gradientUnits="userSpaceOnUse">
<stop offset="0.0687133" stop-color="#263B40"/>
<stop offset="0.247644" stop-color="#225864"/>
<stop offset="1" stop-color="#2EA68C"/>
</linearGradient>
<linearGradient id="paint3_linear_1_234" x1="14.2263" y1="27.7058" x2="18.3109" y2="15.8354" gradientUnits="userSpaceOnUse">
<stop stop-color="#24666B"/>
<stop offset="1" stop-color="#2EA68C"/>
</linearGradient>
<clipPath id="clip0_1_234">
<rect width="37" height="37" rx="12" fill="white"/>
</clipPath>
</defs>
</svg>
