<svg width="20" height="18" viewBox="0 0 20 18" fill="none" xmlns="http://www.w3.org/2000/svg">
<rect x="7" y="7" width="6" height="4" rx="1" fill="#8C8C9C"/>
<path fill-rule="evenodd" clip-rule="evenodd" d="M2.51497 0L4.74251 0C5.43695 0 6 0.671631 6 1.5L6 16.5C6 17.3284 5.43695 18 4.74251 18H2.51497C1.82053 18 1.25749 17.3284 1.25749 16.5L1.25749 10.5C0.562996 10.5 0 9.937 0 9.24251L0 8.75749C0 8.063 0.562996 7.5 1.25749 7.5L1.25749 1.5C1.25749 0.671631 1.82053 0 2.51497 0ZM18.7425 7.5C19.437 7.5 20 8.063 20 8.75749V9.24251C20 9.937 19.437 10.5 18.7425 10.5V16.5C18.7425 17.3284 18.1795 18 17.485 18H15.2575C14.563 18 14 17.3284 14 16.5L14 1.5C14 0.671631 14.563 0 15.2575 0L17.485 0C18.1795 0 18.7425 0.671631 18.7425 1.5V7.5Z" fill="#8C8C9C"/>
</svg>
